<?xml version="1.0" standalone="no"?><!DOCTYPE svg PUBLIC "-//W3C//DTD SVG 1.1//EN" "http://www.w3.org/Graphics/SVG/1.1/DTD/svg11.dtd"><svg t="1492834238905" class="icon" style="" viewBox="0 0 1024 1024" version="1.1" xmlns="http://www.w3.org/2000/svg" p-id="3644" xmlns:xlink="http://www.w3.org/1999/xlink" width="200" height="200"><defs><style type="text/css"></style></defs><path d="M494.1 131.3c-3.3-4.3-5.1 0-5.1 0l-94.8 778.6 102.3 2.2-2.4-780.8zM325.4 749.4l-7.2-47-25.1 38.5-50.8-1.5 32.3 34-20.3 44.8 45.5-23.1 34.1 32.4-2.4-48.7 44.2-20.1-50.3-9.3z m88.4-289.6L362.4 476l-23.9-45.5-15.5 64.8-55 28.6 43.7 10.1-10.1 65.6 42.5-54.8 50.3 15.5-18-50.9 37.4-49.6zM177.7 568.7L149 607.3l-37.1 6.1 22.7 24.7-20.9 42.5 37.1-29.3 26.3 25.5 1.8-40.9 32.3-26.3-34.1-1.6 0.6-39.3z m68.2-133.6l16.7-20.9-21.5 5.4-11.3-20.1-10.2 30.9-28.1 13.9 19.2 4.7-4.8 27.8 22.7-25.5 22.7 8.5-5.4-24.7z m98-109.7l10.8 6.2 4.8-15.5 16.7-13.1-13.1-2.3v-12.3l-13.7 16.3-18.5 3.1 6.5 12.3-11.4 16.1 17.9-10.8z m465.9-114.9s-79.7-51-230.8-15.2c0 0 193-18.4 241.6 129.1 0 0 33.6 149.6-81.4 264.6 0 0-83.1 92.2-138.5 115L527 115.1s-5.9-9.7-5.9 5.5v782.9s89.8-31.4 98.2-46.7l-11.7-97.6s246.7-123.6 297-328.5c-0.1-0.1 47-150.8-94.8-220.2z" fill="#666666" p-id="3645"></path></svg>